#!OML:ASF G:\JayActor3\Patient Classification 1\Patient 1\Session 5\male.ASF
:FULLY-SPECIFIED
:DEGREES
511
root 5.60583 16.429 -6.06394 48.7522 86.7887 26.9089
lowerback 25.7271 -0.542619 0.0173804
upperback 6.0515 -0.346328 -1.22517
thorax -7.57583 0.01983 -1.27549
lowerneck 3.78239 -0.609613 0.520286
upperneck -11.3639 -0.467334 1.83727
head -4.41396 -0.292293 0.54554
rclavicle -9.93923e-016 2.98177e-016
rhumerus -33.0125 -0.463121 -88.3245
rradius 31.6529
rwrist -2.62885
rhand -20.8301 -8.42993
rfingers 7.12502
rthumb 5.53841 -38.3376
lclavicle -9.93923e-016 2.98177e-016
lhumerus -34.8301 -0.718333 86.9066
lradius 28.5984
lwrist 24.6769
lhand -14.6386 8.10653
lfingers 7.12502
lthumb 11.5133 37.7703
rfemur -57.4595 1.77341 15.8303
rtibia 73.1744
rfoot -19.0133 -4.85004
rtoes -9.18582
lfemur -37.059 4.1342 -30.4819
ltibia 39.2166
lfoot -19.5977 6.10613
ltoes 1.78439
512
root 5.75958 16.4285 -6.05997 51.068 86.6633 29.3279
lowerback 25.6894 -0.54488 -0.148235
upperback 6.08792 -0.393172 -1.28589
thorax -7.51631 0.00160538 -1.23218
lowerneck 3.80191 -0.596728 0.475664
upperneck -11.3695 -0.450802 1.85892
head -4.41995 -0.283391 0.560091
rclavicle 1.16786e-014 2.85753e-014
rhumerus -33.0149 -0.481632 -88.2963
rradius 31.6203
rwrist -2.63456
rhand -20.7946 -8.44852
rfingers 7.12502
rthumb 5.57267 -38.3552
lclavicle 1.16786e-014 2.85753e-014
lhumerus -34.8487 -0.645844 86.8139
lradius 28.4838
lwrist 24.6187
lhand -14.585 8.12883
lfingers 7.12502
lthumb 11.565 37.7897
rfemur -58.3052 1.76361 15.7566
rtibia 71.8502
rfoot -19.2863 -5.2781
rtoes -9.29018
lfemur -36.1192 4.19673 -30.6383
ltibia 38.8701
lfoot -19.9246 6.12984
ltoes 1.56503
513
root 5.91419 16.4303 -6.05593 53.3566 86.5415 31.722
lowerback 25.6483 -0.553893 -0.308097
upperback 6.12613 -0.446769 -1.34837
thorax -7.45314 -0.0199316 -1.19207
lowerneck 3.82687 -0.584673 0.438112
upperneck -11.3763 -0.435197 1.87717
head -4.4275 -0.275149 0.572333
rclavicle -7.85199e-015 -2.25124e-014
rhumerus -33.0164 -0.501299 -88.2714
rradius 31.6038
rwrist -2.64732
rhand -20.7469 -8.48115
rfingers 7.12502
rthumb 5.61867 -38.3867
lclavicle -7.85199e-015 -2.25124e-014
lhumerus -34.8719 -0.583326 86.7267
lradius 28.3789
lwrist 24.5413
lhand -14.5806 8.14569
lfingers 7.12502
lthumb 11.5692 37.8064
rfemur -59.0613 1.72617 15.7099
rtibia 70.3563
rfoot -19.5307 -5.77544
rtoes -9.41199
lfemur -35.1439 4.26986 -30.7969
ltibia 38.463
lfoot -20.1997 6.11998
ltoes 1.33528
514
root 6.06945 16.4338 -6.05171 55.6636 86.4215 34.1333
lowerback 25.606 -0.569759 -0.466133
upperback 6.16413 -0.50833 -1.41178
thorax -7.38958 -0.0453578 -1.15161
lowerneck 3.85795 -0.570925 0.398138
upperneck -11.3872 -0.417121 1.8975
head -4.43782 -0.265726 0.585652
rclavicle -1.5704e-014 -2.74323e-014
rhumerus -33.0215 -0.518156 -88.2485
rradius 31.6043
rwrist -2.66115
rhand -20.702 -8.51143
rfingers 7.12502
rthumb 5.66204 -38.4158
lclavicle -1.5704e-014 -2.74323e-014
lhumerus -34.9055 -0.534443 86.6481
lradius 28.2918
lwrist 24.4517
lhand -14.6261 8.18027
lfingers 7.12502
lthumb 11.5253 37.8434
rfemur -59.7313 1.66271 15.6859
rtibia 68.6952
rfoot -19.7483 -6.3323
rtoes -9.64955
lfemur -34.1448 4.35235 -30.9598
ltibia 38.0057
lfoot -20.4233 6.07831
ltoes 1.11408
515
root 6.22526 16.4384 -6.04724 57.9879 86.3096 36.5555
lowerback 25.559 -0.592895 -0.612996
upperback 6.19968 -0.576165 -1.47499
thorax -7.32642 -0.0741125 -1.1155
lowerneck 3.87407 -0.562566 0.367584
upperneck -11.386 -0.40643 1.91471
head -4.44067 -0.260119 0.596442
rclavicle -1.93815e-014 -3.22031e-014
rhumerus -33.0344 -0.541992 -88.2249
rradius 31.623
rwrist -2.67583
rhand -20.6605 -8.53265
rfingers 7.12502
rthumb 5.70217 -38.4359
lclavicle -1.93815e-014 -3.22031e-014
lhumerus -34.9557 -0.502814 86.5795
lradius 28.2335
lwrist 24.3488
lhand -14.7014 8.2188
lfingers 7.12502
lthumb 11.4527 37.886
rfemur -60.3194 1.57833 15.6844
rtibia 66.8702
rfoot -19.9049 -6.91041
rtoes -9.76714
lfemur -33.1341 4.44133 -31.1214
ltibia 37.5098
lfoot -20.5861 6.01665
ltoes 0.825606
516
root 6.38182 16.4438 -6.04225 60.3713 86.2049 39.0302
lowerback 25.5092 -0.620678 -0.747524
upperback 6.23031 -0.647013 -1.53964
thorax -7.26731 -0.104711 -1.08723
lowerneck 3.90565 -0.557248 0.343509
upperneck -11.3938 -0.398963 1.93248
head -4.44995 -0.256547 0.606599
rclavicle -8.94531e-015 -1.2921e-014
rhumerus -33.0631 -0.585613 -88.2001
rradius 31.6544
rwrist -2.68276
rhand -20.642 -8.53371
rfingers 7.12502
rthumb 5.72001 -38.4365
lclavicle -8.94531e-015 -1.2921e-014
lhumerus -35.0235 -0.501813 86.5196
lradius 28.1945
lwrist 24.2508
lhand -14.7849 8.26639
lfingers 7.12502
lthumb 11.3722 37.938
rfemur -60.8291 1.47583 15.7011
rtibia 64.8879
rfoot -19.9914 -7.49233
rtoes -9.82514
lfemur -32.1151 4.53657 -31.2816
ltibia 36.9832
lfoot -20.6964 5.93413
ltoes 0.480547
517
root 6.53928 16.4497 -6.03666 62.8358 86.1047 41.5801
lowerback 25.456 -0.652946 -0.875476
upperback 6.2575 -0.721716 -1.60221
thorax -7.21026 -0.137414 -1.05938
lowerneck 3.9314 -0.557115 0.325354
upperneck -11.3982 -0.398469 1.94794
head -4.4567 -0.25654 0.615216
rclavicle 5.56597e-015 -5.96354e-016
rhumerus -33.1072 -0.635451 -88.1715
rradius 31.6942
rwrist -2.69358
rhand -20.6513 -8.51011
rfingers 7.12502
rthumb 5.71099 -38.4132
lclavicle 5.56597e-015 -5.96354e-016
lhumerus -35.0924 -0.504156 86.4677
lradius 28.1555
lwrist 24.1488
lhand -14.8681 8.30496
lfingers 7.12502
lthumb 11.292 37.981
rfemur -61.2572 1.36671 15.7233
rtibia 62.7548
rfoot -20.0121 -8.03471
rtoes -9.81356
lfemur -31.0881 4.63792 -31.4401
ltibia 36.4297
lfoot -20.7709 5.82586
ltoes 0.124666
